<svg xmlns="http://www.w3.org/2000/svg" viewBox="0 0 512 512"><defs><style>.cls-1{fill:#050066;}.cls-2{fill:#fdeb00;}.cls-3{fill:#fff;}</style></defs><g id="Layer_2" data-name="Layer 2"><g id="Layer_1-2" data-name="Layer 1"><path class="cls-1" d="M512,256a255.18,255.18,0,0,1-18.18,94.91h0a253.32,253.32,0,0,1-17,34.69,250,250,0,0,1-14.4,21.83v16.3c-.78,0-1.56,0-2.33-.07s-1.45.07-2.18.07v-.25a47.85,47.85,0,0,1-7.12-1.37,256,256,0,0,1-388.37,1.4c-1.6-1.84-3.17-3.72-4.72-5.61A256,256,0,1,1,512,256Z"/><polygon id="polygon6" class="cls-2" points="130.38 169.73 115.36 213.18 71 213 106.67 240.7 93.09 282.7 128.94 257.35 165.32 282.7 153.38 241.97 190.49 213 144.14 213 130.38 169.73"/><polygon id="polygon8" class="cls-2" points="381.82 168.32 367.03 211.1 323.36 210.93 358.48 238.2 345.11 279.55 380.4 254.59 416.23 279.55 404.46 239.44 441 210.93 395.37 210.93 381.82 168.32"/><path id="path10" class="cls-2" d="M212.77,170H228v52.65L285.52,170h21.79l-49.16,43.41,50.18,64.16H287.94l-41.22-54L228,240.1v37.49H212.77V170Z"/><path class="cls-3" d="M462.41,364v59.69c-.78,0-1.56,0-2.33-.07s-1.45-.1-2.18-.18a47.85,47.85,0,0,1-7.12-1.37c-18.61-5-35.19-19.69-55-19.69-23.63,0-42.79,21.31-66.66,21.31-23.64,0-42.79-21.31-66.65-21.31-23.65,0-42.79,21.31-66.66,21.31-23.07,0-41.85-20.29-64.93-21.27-.58,0-1.15,0-1.73,0V342.73c.58,0,1.16,0,1.73,0s1.14.06,1.71.11c22.08,1.88,40.51,21.16,63.22,21.16,23.63,0,42.79-21.31,66.66-21.31,23.63,0,42.78,21.31,66.65,21.31,23.64,0,42.79-21.31,66.66-21.31,22.86,0,41.53,19.94,64.33,21.24C460.85,364,461.63,364,462.41,364Z"/><path class="cls-3" d="M460.08,364c12-.73,22.78-7.39,33.73-13.06a253.32,253.32,0,0,1-17,34.69,250,250,0,0,1-14.4,21.83v16c-.77.1-1.55.17-2.33.22s-1.45.07-2.18.07V364C458.63,364,459.36,364,460.08,364Z"/><path class="cls-3" d="M132.56,342.73v59.69c-.57,0-1.14,0-1.71,0-22.83,1-41.42,21.27-64.24,21.27a41.73,41.73,0,0,1-4.2-.22c-1.6-1.84-3.17-3.72-4.72-5.61a256,256,0,0,1-41.6-72.39c17,5.77,32.44,18.53,50.52,18.53,22.46,0,40.68-19.25,62.51-21.15.57-.06,1.15-.1,1.73-.12S132,342.73,132.56,342.73Z"/></g></g></svg>