<svg xmlns="http://www.w3.org/2000/svg" viewBox="0 0 512 512"><defs><style>.cls-1{fill:#4a7aff;}.cls-2{fill:#ffc200;}.cls-3{fill:#ff9700;}.cls-4{fill:#ffa300;}</style></defs><g id="Layer_2" data-name="Layer 2"><g id="Layer_1-2" data-name="Layer 1"><circle class="cls-1" cx="256" cy="256" r="256"/><path class="cls-2" d="M241,59.5h30v393H241Z"/><path class="cls-2" d="M59.5,241h393v30H59.5Z"/><path class="cls-2" d="M106.41,384.32,384.27,106.47l21.21,21.21L127.62,405.53Z"/><path class="cls-2" d="M106.42,127.68l21.21-21.21L405.48,384.32l-21.21,21.21Z"/><path class="cls-3" d="M255.6,59.5H271v393H255.6Z"/><path class="cls-3" d="M255.6,241H452.5v30H255.6Z"/><path class="cls-3" d="M384.34,106.45,255.6,235.19v42.43l150-150Z"/><path class="cls-3" d="M405.55,384.34l-150-150v42.43L384.34,405.55Z"/><path class="cls-4" d="M256,417.5A161.49,161.49,0,0,1,94.5,256C94.5,167,167,94.5,256,94.5A161.49,161.49,0,0,1,417.5,256C417.5,345.05,345.05,417.5,256,417.5Zm0-276A114.51,114.51,0,1,0,337,175a114.64,114.64,0,0,0-81-33.54Z"/><circle class="cls-4" cx="256" cy="256" r="44"/></g></g></svg>