<svg xmlns="http://www.w3.org/2000/svg" viewBox="0 0 512 512"><defs><style>.cls-1{fill:#3e5eb9;}.cls-2,.cls-5,.cls-6{fill:#ffd900;}.cls-3{fill:#b10c0c;}.cls-4,.cls-7{fill:#fff;}.cls-10,.cls-12,.cls-13,.cls-4,.cls-5,.cls-6,.cls-7,.cls-9{stroke:#000;}.cls-4,.cls-5,.cls-6,.cls-8,.cls-9{stroke-miterlimit:6;}.cls-4,.cls-5{stroke-width:1.51px;}.cls-6{stroke-width:1.62px;}.cls-7{stroke-width:1.51px;}.cls-8,.cls-9{fill:none;stroke-width:10.39px;}.cls-8{stroke:#fff;}.cls-10,.cls-12,.cls-13{fill:#3d5da7;}.cls-10{stroke-width:1.28px;}.cls-11{fill:#a70000;}.cls-12{stroke-width:1.6px;}.cls-13{stroke-width:1.24px;}</style></defs><g id="Layer_2" data-name="Layer 2"><g id="Layer_1-2" data-name="Layer 1"><path class="cls-1" d="M512,256A256,256,0,1,1,34.69,127.27,256,256,0,0,1,455,95a255.39,255.39,0,0,1,57,161Z"/><path class="cls-2" d="M512,256a255.31,255.31,0,0,1-57.69,161.9H57.69A255.78,255.78,0,0,1,57,95H455a255.39,255.39,0,0,1,57,161Z"/><path class="cls-3" d="M512,256a254.8,254.8,0,0,1-35.19,129.6H35.19a256.22,256.22,0,0,1-.5-258.33H477.31A254.68,254.68,0,0,1,512,256Z"/><g id="a"><path class="cls-4" d="M421,197.38l-20.76,11.07L421,219.52l20.77-11.07Z"/><path class="cls-5" d="M107.28,204.77h300c1.47,0,2.66,1.65,2.66,3.69h0c0,2-1.19,3.69-2.66,3.69h-300c-1.47,0-2.66-1.65-2.66-3.69h0C104.62,206.42,105.81,204.77,107.28,204.77Z"/><path class="cls-5" d="M402.67,212.15c1.22,0,2.44-1.85,2.44-3.69s-1.22-3.69-2.44-3.69m-2.45,7.38c1.22,0,2.45-1.85,2.45-3.69s-1.23-3.69-2.45-3.69m-2.44,7.38c1.22,0,2.44-1.85,2.44-3.69s-1.22-3.69-2.44-3.69"/></g><g id="a-2" data-name="a"><path class="cls-4" d="M401.08,219.53l-20.77,11.08,20.77,11.07,20.76-11.07Z"/><path class="cls-5" d="M87.38,226.92h300c1.47,0,2.65,1.65,2.65,3.69h0c0,2-1.18,3.69-2.65,3.69h-300c-1.46,0-2.65-1.65-2.65-3.69h0C84.73,228.57,85.92,226.92,87.38,226.92Z"/><path class="cls-5" d="M382.77,234.3c1.22,0,2.45-1.85,2.45-3.69s-1.23-3.69-2.45-3.69m-2.44,7.38c1.22,0,2.44-1.85,2.44-3.69s-1.22-3.69-2.44-3.69m-2.45,7.38c1.22,0,2.45-1.85,2.45-3.69s-1.23-3.69-2.45-3.69"/></g><path class="cls-6" d="M54.34,250.91h408c2,0,3.61,2.48,3.61,5.53h0c0,3.06-1.62,5.54-3.61,5.54h-408c-2,0-3.61-2.48-3.61-5.54h0C50.73,253.39,52.34,250.91,54.34,250.91Z"/><path class="cls-7" d="M378.22,256.44c-24.42,36.9-57,110.71-122.14,110.71-57,0-97.71-73.81-122.15-110.71,24.43-36.91,65.14-110.72,122.15-110.72C321.22,145.72,353.79,219.53,378.22,256.44Z"/><path d="M247.55,184.23c6.5,11.05,1.08,15.5,8,16.22,7.25.81,3.14,11.67,9.24,12.05,4.27.28-.43,26,3.68,34.52,4.18,8.86,7.69,2.6,7.76,9,.07,6.62-11.38,6-11.58,26.33-.34,11.75-9.68,12.5-10.12,20.07-.55,7.11,18.39,11.1,18.13,17.46s-20.45,5.35-21.33,12.59c-.45,6.5,27.74,11.83,30,30.63-4.21,2.08-16.17,4-25.22,4-57,.06-97.71-73.82-122.14-110.72,24.43-36.91,65.14-110.72,122.15-110.72,0,0-16.92,23.36-8.53,38.52Z"/><g id="d"><g id="c"><path id="b" class="cls-8" d="M182.5,246.59V217.07m11.84,0v29.52m11.85-29.52v29.52"/><path id="b-2" data-name="b" class="cls-8" d="M182.5,295.8V266.28m11.84,0V295.8m11.85-29.52V295.8"/></g><g id="c-2" data-name="c"><path id="b-3" data-name="b" class="cls-8" d="M218,246.59V217.07m11.85,0v29.52m11.85-29.52v29.52"/><path id="b-4" data-name="b" class="cls-8" d="M218,295.8V266.28m11.85,0V295.8m11.85-29.52V295.8"/></g></g><g id="d-2" data-name="d"><g id="c-3" data-name="c"><path id="b-5" data-name="b" class="cls-9" d="M272.07,246.59V217.07m11.84,0v29.52m11.85-29.52v29.52"/><path id="b-6" data-name="b" class="cls-9" d="M272.07,295.8V266.28m11.84,0V295.8m11.85-29.52V295.8"/></g><g id="c-4" data-name="c"><path id="b-7" data-name="b" class="cls-9" d="M307.6,246.59V217.07m11.85,0v29.52m11.85-29.52v29.52"/><path id="b-8" data-name="b" class="cls-9" d="M307.6,295.8V266.28m11.85,0V295.8m11.85-29.52V295.8"/></g></g><path class="cls-10" d="M436.79,252.05c-3.7,9.68,2.84-3.23,18.8,13,3,3,5.54,11,5.54,16.49-.75-.76-1.31-2.45-2.13-3.55-1.16,1.75,1.1,9.79,1.43,13.59-2.49-2.11-2.25-3.11-3.08-5.7.16,3.13-.43,11.76.56,15.08-2-.85-1.83-3.24-2.86-3.72.7,3.76-.61,7.86-.26,12.09-1.15-1.72-2.37-3.07-2.91-3.76-.09,2-2.21,7.3-2.26,9.21a5.51,5.51,0,0,1-1.4-3.21c-1.21,2.3-5.52,10.79-5.79,13.38-3.32-4.42-11.82-15.21-12.93-20.93-1,3.25-2.39,4.35-5.19,6.72-1.11-9.07-5.24-19.27-3-27a57.9,57.9,0,0,0-4.42,4.53c1.48-13.13,9.05-28.54,19.93-36.16Z"/><path class="cls-11" d="M423,300c1.54-4.64,2.95-6.11,3.95-9.1,1.75-5.25,2-9.42,3.53-8.81S432,284.84,430,290,427.09,296.27,423,300Zm10.39,11.06c-.2-3.53.48-5,.36-7.28-.21-4-1.3-6.75.11-6.95s2.07,1.17,2.07,5.21-.41,5.09-2.54,9Zm7.88,6.92c-.61-4.93-.15-7.12-.55-10.29-.68-5.59-2-9.27-.73-9.79s2.09,1.3,2.59,7,.23,7.23-1.31,13.11Zm8.2-34.55c-1.92-2.21-3-2.36-4.29-3.77-2.18-2.49-3.29-5.16-4-3.84s-.21,2.77,2.08,5.07,3.07,2.48,6.2,2.54Zm-1.36,16.37c-1-3.19-2.08-4-2.74-6-1.16-3.6-1.16-6.72-2.42-5.92s-1.36,2.43,0,5.91S445,297.86,448.1,299.79Z"/><path class="cls-12" d="M68.66,261.37c-.21-2.82.19-3.16-1-5.28,1.67,1.06,1.74,3.86,3.77,1.87.74-.58,1.07-.6.16-3.73,2.12.14,9.06,3.74,10.17,3.82,2.92.21,8.25-4.63,12,1.32,3.55,5.42,2.36,11,2.36,18.55-1.42-1-.74-1.54-2.25-4.23,1.13,6.56-.06,18.39-.06,25.35-.58-1.68-.5-1-1.07-2.69-1.51,6.35-3.32,7.66-3.32,15.17-.55-2.95,0-2.33-.63-3.87-1.47,4.82-11.34,8.94-7.54,13.8-3.43-3-4.93-2.72-6.49-5.45a10.38,10.38,0,0,0-1.83,3.58c-6-4.19-3.87-13.24-8.6-19.28-.82,2.53-.44,2.17-1.33,6.29-1-5.73-1.22-9.37-2.29-13.58-.93,2.34-.85,1.44-2.53,5-.7-7-1.84-8.62-1.39-13.24-1.79,1.91-.62,1.14-2.41,3.49,1.7-17.88,9-31.09,14.29-26.86Z"/><path class="cls-11" d="M61.23,290.55c1.56-5.76,3-7.56,4-11.27,1.78-6.51,2.07-11.72,3.56-10.92s1.46,3.47-.53,9.87-2.93,7.76-7,12.32ZM67.12,305c.62-5.16,1.61-7,2-10.36.72-5.84.32-10.2,1.7-10s1.7,2.44.78,8.25-1.56,7.19-4.49,12.08Zm7,10c.18-5,1-6.95,1.07-10.18.21-5.66-.51-9.72.81-9.74s1.79,2,1.38,7.69-.89,7.09-3.26,12.23Zm15.12-32.72c-2.89-4.35-4.64-5.16-6.51-8-3.28-4.91-4.87-9.52-6-7.89s-.46,4.09,3,8.76S84.39,280.51,89.28,282.24Zm-1.76,16.82c-1.89-4.37-3.27-5.5-4.48-8.31-2.15-4.94-2.89-9.18-4.1-8.13s-.94,3.27,1.38,8.06,3.26,5.66,7.2,8.38Z"/><path class="cls-13" d="M216.59,165.37c-3.39,9.89,5.92-3.28,20.51,13.27,2.71,3.07,6.59,15.22,6.59,20.86-3.11-1-8.61-5.64-8.61-5.64s6.45,9.77,6.45,21c-2.28-2.16-3.42-1.83-4.18-4.48,0,3.65,2,6,2,11.6a33.46,33.46,0,0,0-4.43-4.47c2.15,5.63-3.92,16.56-.88,20.21-5.32-1.17-10.76-6.3-12.91-11.93-1.14,1.16-1.27,3-1.31,4.93.17.21-8.09-9.26-7.33-12.9a15.56,15.56,0,0,0-1.52,6.28c-3-4.52-5.82-9-6.83-14.88-1.35,2.64-1.43,2.64-2.78,5.29-1-9.26-1-8.93,1-16.87a60.12,60.12,0,0,0-4.05,4.63c1.36-13.41,8.28-29.14,18.24-36.93Z"/><path class="cls-11" d="M208.24,213.68c.54-6.81,1.72-9.38,2.07-13.76.63-7.72-.11-13.36,1.7-13.22s2.33,3,1.43,10.69-1.65,9.57-5.2,16.29Zm9.45,12.48c-.37-5.75.34-8.19.1-11.9-.4-6.51-1.73-10.93-.15-11.33s2.37,1.78,2.54,8.36-.25,8.33-2.49,14.87Zm14.75,10.18c-1.61-5-3-6.46-4-9.66-1.83-5.63-2.21-10.22-3.62-9.39s-1.33,3.21.7,8.72S228.46,232.64,232.44,236.34Zm5.1-44.55c-4.08-3.25-6.18-3.29-8.81-5.38-4.64-3.66-7.34-7.79-8.29-5.52s.32,4.54,5.09,7.87,6.25,3.48,12,3ZM239,210.4c-3-3.74-4.73-4.29-6.65-6.69-3.38-4.22-5.06-8.37-6.19-6.69s-.38,3.9,3.17,7.88,4.76,4.47,9.67,5.5Z"/></g></g></svg>