<svg xmlns="http://www.w3.org/2000/svg" viewBox="0 0 24 24"><path fill="#fd3511" d="M24,11a2,2,0,0,1-3.4,1.62,1.11,1.11,0,0,0-.95-.41h-.09a1,1,0,0,0-.37.1c-.33.15-.88.33-.89.71a6.43,6.43,0,0,1-.37,1.45.58.58,0,0,0,0,.48l.14.24a1,1,0,0,0,.34.38l.11.07a1.05,1.05,0,0,0,.73.19A1.35,1.35,0,0,1,20.45,18a1.32,1.32,0,0,1-2.27-.34,1,1,0,0,0-.41-.52l-.24-.17a1.17,1.17,0,0,0-.48-.18l-.24,0a.6.6,0,0,0-.48.16,6.53,6.53,0,0,1-1.44,1.06c-.4.16-.32.95-.35,1.38a1.27,1.27,0,0,0,0,.34l.14.56a1.08,1.08,0,0,0,.51.69,1.65,1.65,0,1,1-2.22.58,1.13,1.13,0,0,0,.14-.84L13,20a1.69,1.69,0,0,0-.13-.31l-.41-.66c-.34-.56-1.31-.26-1.89-.47s-.9.47-1.22.81a1.27,1.27,0,0,0-.18.27l-.45,1a1,1,0,0,0-.09.71A1.33,1.33,0,0,1,6.7,22.79a1.37,1.37,0,0,1,0-2.35,1,1,0,0,0,.49-.5l.48-1a1.17,1.17,0,0,0,.09-.32l.12-.88a.53.53,0,0,0-.19-.5,6.63,6.63,0,0,1-1.48-1.73.54.54,0,0,0-.46-.26H5a1.27,1.27,0,0,0-.34,0l-.37.12a1.06,1.06,0,0,0-.69.66A1.84,1.84,0,0,1,.1,16a1.86,1.86,0,0,1,2.65-2.2,1.15,1.15,0,0,0,.91.1l.46-.15a1.3,1.3,0,0,0,.31-.16L5.16,13c.3-.22.13-.63.16-.94a6.66,6.66,0,0,1,.59-2.76.44.44,0,0,0,0-.39l-.15-.3a.94.94,0,0,0-.32-.39l-.1-.08a1,1,0,0,0-.72-.23,1.35,1.35,0,0,1-1.06-2.2,1.32,1.32,0,0,1,2.25.47,1.08,1.08,0,0,0,.38.54l.23.18a1.16,1.16,0,0,0,.47.2h0a1.07,1.07,0,0,0,.88-.22,6.45,6.45,0,0,1,1.11-.73,1.1,1.1,0,0,0,.58-.8L9.52,5a1.28,1.28,0,0,0,0-.39l-.08-.39a1.06,1.06,0,0,0-.55-.75A1.84,1.84,0,0,1,9.44.05a1.88,1.88,0,0,1,1.87,3,1.1,1.1,0,0,0-.26,1l0,.26a1.13,1.13,0,0,0,.14.36l.43.71a.22.22,0,0,0,.17.09,6.35,6.35,0,0,1,3.36,1c.09.1.58-.18.85-.32a1.08,1.08,0,0,0,.32-.24l.51-.57a1,1,0,0,0,.29-.65,1.33,1.33,0,0,1,2.26-.81,1.36,1.36,0,0,1-.72,2.24,1.09,1.09,0,0,0-.63.34l-.26.28a3.21,3.21,0,0,0-.67,1.14c-.06.18-.09.33,0,.37A6.43,6.43,0,0,1,18,10a.59.59,0,0,0,.37.37l.6.17a1.08,1.08,0,0,0,.4,0h.21a1.13,1.13,0,0,0,.84-.54A1.93,1.93,0,0,1,24,11Z"/><path fill="#fd3511" d="M3.86.61a1.38,1.38,0,0,1,0,2.75,1.38,1.38,0,1,1,0-2.75ZM3.48,19.19a.91.91,0,1,1-.91.91A.91.91,0,0,1,3.48,19.19Zm16.67,1.07a1.34,1.34,0,1,1-1.34,1.33A1.33,1.33,0,0,1,20.15,20.26Z"/><path fill="#ff651a" opacity=".67" d="M11.84,7.31a4.76,4.76,0,0,0-4.69,4.82A4.76,4.76,0,0,0,11.84,17a4.76,4.76,0,0,0,4.68-4.83A4.76,4.76,0,0,0,11.84,7.31ZM9.25,10.8a1.25,1.25,0,1,1,1.25,1.25A1.25,1.25,0,0,1,9.25,10.8Zm2.25,4.72a.85.85,0,1,1,.85-.85A.85.85,0,0,1,11.5,15.52Zm2.66-2.68a.71.71,0,1,1,.71-.71A.71.71,0,0,1,14.16,12.84Z"/></svg>
