<svg xmlns="http://www.w3.org/2000/svg" viewBox="0 0 512 512"><defs><style>.cls-1{fill:#009e60;}.cls-2{fill:#fff;}.cls-3{fill:#f77f00;}</style></defs><g id="Layer_2" data-name="Layer 2"><g id="Layer_1-2" data-name="Layer 1"><path class="cls-1" d="M512,256a255.18,255.18,0,0,1-18.18,94.91h0a253.32,253.32,0,0,1-17,34.69,250,250,0,0,1-14.4,21.83c-1.47,2-3,4-4.51,6-1.18,1.52-2.38,3-3.59,4.5s-2.33,2.82-3.53,4.21a255.85,255.85,0,0,1-388.37,1.4c-1.6-1.84-3.17-3.72-4.72-5.61A256,256,0,1,1,512,256Z"/><path class="cls-2" d="M342.67,15V497A255.86,255.86,0,0,1,62.41,423.51c-1.6-1.84-3.17-3.72-4.72-5.61A256.1,256.1,0,0,1,342.67,15Z"/><path class="cls-3" d="M169.33,15V497A256.43,256.43,0,0,1,62.41,423.51c-1.6-1.84-3.17-3.72-4.72-5.61A256.13,256.13,0,0,1,169.33,15Z"/></g></g></svg>