<svg xmlns="http://www.w3.org/2000/svg" viewBox="0 0 18 18"><path fill="#a0a5ab" d="M14.63,7.67a.75.75,0,0,1-.57.35l-.13,0a.83.83,0,0,1-.27,0l-.4-.11A.39.39,0,0,1,13,7.65a4.59,4.59,0,0,0-.6-1.19s0-.13,0-.25a2.21,2.21,0,0,1,.45-.75l.17-.19A.71.71,0,0,1,13.47,5,.91.91,0,0,0,14,3.55a.87.87,0,0,0-1.5.54.7.7,0,0,1-.19.43l-.35.38a.65.65,0,0,1-.21.16c-.18.09-.5.28-.57.21a4.27,4.27,0,0,0-2.24-.63.14.14,0,0,1-.11-.06l-.29-.47a1,1,0,0,1-.09-.24l0-.18a.71.71,0,0,1,.17-.64A1.26,1.26,0,0,0,7.3,1a1.23,1.23,0,0,0-.38,2.3.73.73,0,0,1,.37.5l0,.26a.53.53,0,0,1,0,.25l0,.25a.72.72,0,0,1-.38.53,4.52,4.52,0,0,0-.74.49.72.72,0,0,1-.47.16H5.59a.73.73,0,0,1-.31-.14L5.12,5.5a.76.76,0,0,1-.25-.36.89.89,0,0,0-1.5-.32.9.9,0,0,0,.71,1.47.71.71,0,0,1,.48.16l.07,0a.75.75,0,0,1,.21.26l.1.2a.3.3,0,0,1,0,.26,4.49,4.49,0,0,0-.39,1.84c0,.21.09.48-.11.63L4,10a.54.54,0,0,1-.2.1l-.31.1a.73.73,0,0,1-.61-.06,1.23,1.23,0,1,0,.54,1.53.7.7,0,0,1,.46-.44l.24-.08a.85.85,0,0,1,.23,0h.57a.34.34,0,0,1,.3.17,4.37,4.37,0,0,0,1,1.15.36.36,0,0,1,.13.34l-.08.58a.57.57,0,0,1-.07.22l-.31.66a.73.73,0,0,1-.33.34.9.9,0,0,0,0,1.56.88.88,0,0,0,1.28-1,.8.8,0,0,1,.06-.48c.1-.21.23-.48.3-.64l.13-.18c.21-.22.49-.64.81-.54s1-.06,1.26.32l.27.44a.49.49,0,0,1,.08.21l.1.4a.71.71,0,0,1-.09.57,1.1,1.1,0,1,0,1.49-.39.73.73,0,0,1-.35-.46c0-.13-.07-.27-.09-.37a.6.6,0,0,1,0-.23c0-.29,0-.81.23-.92a4.72,4.72,0,0,0,1-.7.34.34,0,0,1,.31-.11l.17,0a.66.66,0,0,1,.32.12l.16.11a.7.7,0,0,1,.27.34.88.88,0,0,0,1.51.23.89.89,0,0,0-.78-1.42.72.72,0,0,1-.49-.13l-.07-.05a.69.69,0,0,1-.23-.25L13,11a.4.4,0,0,1,0-.32,4.46,4.46,0,0,0,.25-1c0-.25.36-.37.59-.47A.72.72,0,0,1,14,9.13h.05a.72.72,0,0,1,.64.27A1.31,1.31,0,0,0,17,8.32,1.28,1.28,0,0,0,14.63,7.67ZM8,7.37a.83.83,0,1,1-.83.83A.83.83,0,0,1,8,7.37Zm.1,3.41a.57.57,0,0,1,1.13,0,.57.57,0,1,1-1.13,0Zm2.34-1.22A.47.47,0,0,1,10,9.09a.48.48,0,0,1,.47-.48.49.49,0,0,1,.48.48A.48.48,0,0,1,10.44,9.56ZM3.57,1.41a.92.92,0,1,1-.92.91A.92.92,0,0,1,3.57,1.41ZM3.32,13.8a.61.61,0,0,1,.61.6.62.62,0,0,1-.61.61.61.61,0,0,1-.6-.61A.6.6,0,0,1,3.32,13.8Zm11.11.7a.9.9,0,1,1-.89.89A.89.89,0,0,1,14.43,14.5Z"/></svg>